<svg xmlns="http://www.w3.org/2000/svg" width="102" height="221" viewBox="0 0 26.988 58.473"><path d="M4.498 53.975.27 53.98l-.005 4.228 4.227-.005z" style="stroke-width:.274192;stroke:none"/><path d="m4.366 49.61-3.964.004-.005 3.964 3.963-.005z" style="stroke-width:.257054;stroke:none"/><path d="m4.233 45.376-3.7.005-.004 3.7 3.7-.005z" style="stroke-width:.239917;stroke:none"/><path d="m4.101 41.275-3.435.005-.005 3.435 3.436-.005z" style="stroke-width:.22278;stroke:none"/><path d="m3.969 37.306-3.171.005-.004 3.171 3.17-.005z" style="stroke-width:.205643;stroke:none"/><path d="M3.836 33.47H.93l-.004 2.907h2.907Z" style="stroke-width:.188506;stroke:none"/><path d="M3.704 29.766H1.062l-.004 2.642h2.643z" style="stroke-width:.171369;stroke:none"/><path d="M3.572 26.194H1.194l-.003 2.378h2.378z" style="stroke-width:.154232;stroke:none"/><path d="M3.44 22.754H1.326l-.003 2.114h2.114z" style="stroke-width:.137095;stroke:none"/><path d="M3.307 19.447h-1.85l-.002 1.85h1.85z" style="stroke-width:.119958;stroke:none"/><path d="M3.175 16.272H1.589l-.001 1.585h1.585z" style="stroke-width:.102821;stroke:none"/><path d="M3.043 13.23H1.72l-.001 1.32H3.04z" style="stroke-width:.0856842;stroke:none"/><path d="M2.91 10.319H1.853v1.057h1.056z" style="stroke-width:.0685474;stroke:none"/><path d="M2.778 7.54h-.793v.793h.792z" style="stroke-width:.0514105;stroke:none"/><path d="M2.646 4.895h-.529v.528h.528z" style="stroke-width:.0342737;stroke:none"/><path d="M2.514 2.381h-.265v.265h.264z" style="stroke-width:.0171368;stroke:none"/><path d="m8.996 53.975-4.228.005-.006 4.228 4.228-.005z" style="stroke-width:.274192;stroke:none"/><path d="m8.864 49.61-3.964.004-.005 3.964 3.963-.005z" style="stroke-width:.257054;stroke:none"/><path d="m8.731 45.376-3.7.005-.004 3.7 3.7-.005z" style="stroke-width:.239917;stroke:none"/><path d="m8.599 41.275-3.435.005-.005 3.435 3.436-.005z" style="stroke-width:.22278;stroke:none"/><path d="m8.467 37.306-3.171.005-.004 3.171 3.17-.005z" style="stroke-width:.205643;stroke:none"/><path d="M8.334 33.47H5.428l-.004 2.907h2.907z" style="stroke-width:.188506;stroke:none"/><path d="M8.202 29.766H5.56l-.004 2.642H8.2Z" style="stroke-width:.171369;stroke:none"/><path d="M8.07 26.194H5.692l-.003 2.378h2.378z" style="stroke-width:.154232;stroke:none"/><path d="M7.938 22.754H5.823l-.002 2.114h2.114z" style="stroke-width:.137095;stroke:none"/><path d="M7.805 19.447h-1.85l-.002 1.85h1.85z" style="stroke-width:.119958;stroke:none"/><path d="M7.673 16.272H6.087l-.002 1.585h1.586Z" style="stroke-width:.102821;stroke:none"/><path d="M7.54 13.23H6.22l-.002 1.32h1.32z" style="stroke-width:.0856842;stroke:none"/><path d="M7.408 10.319H6.351l-.001 1.057h1.057z" style="stroke-width:.0685474;stroke:none"/><path d="M7.276 7.54h-.793v.793h.792z" style="stroke-width:.0514105;stroke:none"/><path d="M7.144 4.895h-.529v.528h.528z" style="stroke-width:.0342737;stroke:none"/><path d="M7.011 2.381h-.264v.265h.264z" style="stroke-width:.0171368;stroke:none"/><path d="m4.498 146.844-4.228.005-.005 4.228 4.227-.005z" style="stroke-width:.274192;stroke:none" transform="translate(8.996 -92.869)"/><path d="m4.366 142.478-3.964.005-.005 3.964 3.963-.005z" style="stroke-width:.257054;stroke:none" transform="translate(8.996 -92.869)"/><path d="m4.233 138.245-3.7.005-.004 3.7 3.7-.005z" style="stroke-width:.239917;stroke:none" transform="translate(8.996 -92.869)"/><path d="m4.101 134.144-3.435.005-.005 3.435 3.436-.005z" style="stroke-width:.22278;stroke:none" transform="translate(8.996 -92.869)"/><path d="m3.969 130.175-3.171.005-.004 3.171 3.17-.005z" style="stroke-width:.205643;stroke:none" transform="translate(8.996 -92.869)"/><path d="M3.836 126.339H.93l-.004 2.906h2.907Z" style="stroke-width:.188506;stroke:none" transform="translate(8.996 -92.869)"/><path d="M3.704 122.634H1.062l-.004 2.643h2.643z" style="stroke-width:.171369;stroke:none" transform="translate(8.996 -92.869)"/><path d="M3.572 119.063H1.194l-.003 2.378h2.378z" style="stroke-width:.154232;stroke:none" transform="translate(8.996 -92.869)"/><path d="M3.44 115.623H1.326l-.003 2.114h2.114z" style="stroke-width:.137095;stroke:none" transform="translate(8.996 -92.869)"/><path d="M3.307 112.316h-1.85l-.002 1.85h1.85z" style="stroke-width:.119958;stroke:none" transform="translate(8.996 -92.869)"/><path d="M3.175 109.14H1.589l-.001 1.586h1.585z" style="stroke-width:.102821;stroke:none" transform="translate(8.996 -92.869)"/><path d="M3.043 106.098H1.72l-.001 1.321H3.04z" style="stroke-width:.0856842;stroke:none" transform="translate(8.996 -92.869)"/><path d="M2.91 103.188H1.853v1.056h1.056z" style="stroke-width:.0685474;stroke:none" transform="translate(8.996 -92.869)"/><path d="M2.778 100.41h-.793v.792h.792z" style="stroke-width:.0514105;stroke:none" transform="translate(8.996 -92.869)"/><path d="M2.646 97.764h-.529v.528h.528z" style="stroke-width:.0342737;stroke:none" transform="translate(8.996 -92.869)"/><path d="M2.514 95.25h-.265v.264h.264z" style="stroke-width:.0171368;stroke:none" transform="translate(8.996 -92.869)"/><path d="m17.992 53.975-4.228.005-.006 4.228 4.228-.005z" style="stroke-width:.274192;stroke:none"/><path d="m17.86 49.61-3.964.004-.005 3.964 3.963-.005z" style="stroke-width:.257054;stroke:none"/><path d="m17.727 45.376-3.7.005-.004 3.7 3.7-.005z" style="stroke-width:.239917;stroke:none"/><path d="m17.595 41.275-3.436.005-.004 3.435 3.435-.005z" style="stroke-width:.22278;stroke:none"/><path d="m17.462 37.306-3.17.005-.005 3.171 3.171-.005z" style="stroke-width:.205643;stroke:none"/><path d="M17.33 33.47h-2.907l-.003 2.907h2.906z" style="stroke-width:.188506;stroke:none"/><path d="M17.198 29.766h-2.643l-.003 2.642h2.642z" style="stroke-width:.171369;stroke:none"/><path d="M17.066 26.194h-2.379l-.003 2.378h2.379z" style="stroke-width:.154232;stroke:none"/><path d="M16.933 22.754H14.82l-.002 2.114h2.114z" style="stroke-width:.137095;stroke:none"/><path d="M16.801 19.447h-1.85l-.002 1.85h1.85z" style="stroke-width:.119958;stroke:none"/><path d="M16.669 16.272h-1.586l-.002 1.585h1.586z" style="stroke-width:.102821;stroke:none"/><path d="M16.536 13.23h-1.32l-.002 1.32h1.32z" style="stroke-width:.0856842;stroke:none"/><path d="M16.404 10.319h-1.057l-.001 1.057h1.057z" style="stroke-width:.0685474;stroke:none"/><path d="M16.272 7.54h-.793v.793h.792z" style="stroke-width:.0514105;stroke:none"/><path d="M16.14 4.895h-.529v.528h.528z" style="stroke-width:.0342737;stroke:none"/><path d="M16.007 2.381h-.264v.265h.264z" style="stroke-width:.0171368;stroke:none"/><path d="m22.49 53.975-4.228.005-.006 4.228 4.228-.005z" style="stroke-width:.274192;stroke:none"/><path d="m22.357 49.61-3.964.004-.004 3.964 3.963-.005z" style="stroke-width:.257054;stroke:none"/><path d="m22.225 45.376-3.7.005-.004 3.7 3.7-.005z" style="stroke-width:.239917;stroke:none"/><path d="m22.093 41.275-3.436.005-.004 3.435 3.435-.005z" style="stroke-width:.22278;stroke:none"/><path d="m21.96 37.306-3.17.005-.005 3.171 3.171-.005z" style="stroke-width:.205643;stroke:none"/><path d="M21.828 33.47h-2.907l-.003 2.907h2.906z" style="stroke-width:.188506;stroke:none"/><path d="M21.696 29.766h-2.643l-.003 2.642h2.642z" style="stroke-width:.171369;stroke:none"/><path d="M21.564 26.194h-2.379l-.003 2.378h2.378z" style="stroke-width:.154232;stroke:none"/><path d="M21.431 22.754h-2.114l-.002 2.114h2.114z" style="stroke-width:.137095;stroke:none"/><path d="M21.299 19.447h-1.85l-.002 1.85h1.85z" style="stroke-width:.119958;stroke:none"/><path d="M21.167 16.272H19.58l-.002 1.585h1.586z" style="stroke-width:.102821;stroke:none"/><path d="M21.034 13.23h-1.32l-.002 1.32h1.32z" style="stroke-width:.0856842;stroke:none"/><path d="M20.902 10.319h-1.057l-.001 1.057H20.9z" style="stroke-width:.0685474;stroke:none"/><path d="M20.77 7.54h-.793l-.001.793h.793z" style="stroke-width:.0514105;stroke:none"/><path d="M20.637 4.895h-.528v.528h.528z" style="stroke-width:.0342737;stroke:none"/><path d="M20.505 2.381h-.264v.265h.264z" style="stroke-width:.0171368;stroke:none"/><path d="m26.988 53.975-4.229.005-.005 4.228 4.228-.005z" style="stroke-width:.274192;stroke:none"/><path d="m26.855 49.61-3.964.004-.005 3.964 3.964-.005z" style="stroke-width:.257054;stroke:none"/><path d="m26.723 45.376-3.7.005-.004 3.7 3.7-.005z" style="stroke-width:.239917;stroke:none"/><path d="m26.59 41.275-3.435.005-.004 3.435 3.435-.005z" style="stroke-width:.22278;stroke:none"/><path d="m26.458 37.306-3.17.005-.005 3.171 3.171-.005z" style="stroke-width:.205643;stroke:none"/><path d="M26.326 33.47h-2.907l-.003 2.907h2.906z" style="stroke-width:.188506;stroke:none"/><path d="M26.194 29.766H23.55l-.003 2.642h2.642z" style="stroke-width:.171369;stroke:none"/><path d="M26.061 26.194h-2.378l-.003 2.378h2.378z" style="stroke-width:.154232;stroke:none"/><path d="M25.93 22.754h-2.115l-.002 2.114h2.113z" style="stroke-width:.137095;stroke:none"/><path d="M25.797 19.447h-1.85l-.002 1.85h1.85z" style="stroke-width:.119958;stroke:none"/><path d="M25.665 16.272h-1.586l-.002 1.585h1.586z" style="stroke-width:.102821;stroke:none"/><path d="M25.532 13.23h-1.321l-.002 1.32h1.322z" style="stroke-width:.0856842;stroke:none"/><path d="M25.4 10.319h-1.057l-.001 1.057h1.057z" style="stroke-width:.0685474;stroke:none"/><path d="M25.268 7.54h-.793l-.001.793h.793z" style="stroke-width:.0514105;stroke:none"/><path d="M25.135 4.895h-.528v.528h.528z" style="stroke-width:.0342737;stroke:none"/><path d="M25.003 2.381h-.264v.265h.264z" style="stroke-width:.0171368;stroke:none"/></svg>