<?xml version="1.0" encoding="UTF-8" standalone="no"?>
<!-- Created with Inkscape (http://www.inkscape.org/) -->

<svg
   width="102"
   height="221"
   viewBox="0 0 26.9875 58.472918"
   version="1.1"
   id="svg1728"
   inkscape:version="1.2 (dc2aeda, 2022-05-15)"
   sodipodi:docname="drake-pattern-working.svg"
   xmlns:inkscape="http://www.inkscape.org/namespaces/inkscape"
   xmlns:sodipodi="http://sodipodi.sourceforge.net/DTD/sodipodi-0.dtd"
   xmlns="http://www.w3.org/2000/svg"
   xmlns:svg="http://www.w3.org/2000/svg">
  <sodipodi:namedview
     id="namedview1730"
     pagecolor="#ffffff"
     bordercolor="#000000"
     borderopacity="0.25"
     inkscape:showpageshadow="2"
     inkscape:pageopacity="0.0"
     inkscape:pagecheckerboard="0"
     inkscape:deskcolor="#d1d1d1"
     inkscape:document-units="px"
     showgrid="false"
     inkscape:zoom="2.7277424"
     inkscape:cx="50.224684"
     inkscape:cy="155.07329"
     inkscape:window-width="1908"
     inkscape:window-height="1290"
     inkscape:window-x="0"
     inkscape:window-y="25"
     inkscape:window-maximized="0"
     inkscape:current-layer="layer1" />
  <defs
     id="defs1725" />
  <g
     inkscape:label="Layer 1"
     inkscape:groupmode="layer"
     id="layer1">
    <g
       id="g39328-2-8"
       transform="translate(8.9958334,-92.868751)" />
    <g
       id="g44187">
      <path
         d="m 4.4979167,53.974999 -4.22804836,0.005 -0.005285,4.22833 4.22785766,-0.005 z"
         id="path6213"
         style="stroke-width:0.274192;stroke:none" />
      <path
         d="m 4.3656251,49.609379 -3.96380011,0.005 -0.00495,3.96401 3.96362091,-0.005 z"
         id="path6213-5"
         style="stroke-width:0.257054;stroke:none" />
      <path
         d="m 4.2333334,45.376039 -3.69954674,0.005 -0.00462,3.69974 3.69937954,-0.005 z"
         id="path6213-5-2"
         style="stroke-width:0.239917;stroke:none" />
      <path
         d="m 4.1010418,41.274999 -3.43529348,0.005 -0.00429,3.43548 3.43513818,-0.005 z"
         id="path6213-5-2-3"
         style="stroke-width:0.22278;stroke:none" />
      <path
         d="m 3.9687501,37.306249 -3.17104011,0.005 -0.00396,3.17121 3.17089671,-0.005 z"
         id="path6213-5-2-3-5"
         style="stroke-width:0.205643;stroke:none" />
      <path
         d="M 3.8364584,33.469789 H 0.92967166 l -0.00363,2.90675 H 3.832697 Z"
         id="path6213-5-2-3-5-2"
         style="stroke-width:0.188506;stroke:none" />
      <path
         d="M 3.7041668,29.765629 H 1.0616334 l -0.0033,2.6425 h 2.6424139 z"
         id="path6213-5-2-3-5-2-5"
         style="stroke-width:0.171369;stroke:none" />
      <path
         d="m 3.571875,26.193749 h -2.37828 l -0.00297,2.37825 h 2.3781725 z"
         id="path6213-5-2-3-5-2-5-9"
         style="stroke-width:0.154232;stroke:none" />
      <path
         d="M 3.4395834,22.754169 H 1.3255567 l -0.00264,2.114 h 2.1139311 z"
         id="path6213-5-2-3-5-2-5-9-8"
         style="stroke-width:0.137095;stroke:none" />
      <path
         d="M 3.3072918,19.446879 H 1.4575184 l -0.00231,1.84975 h 1.8496897 z"
         id="path6213-5-2-3-5-2-5-9-8-0"
         style="stroke-width:0.119958;stroke:none" />
      <path
         d="M 3.175,16.271879 H 1.58948 l -0.00198,1.5855 h 1.5854483 z"
         id="path6213-5-2-3-5-2-5-9-8-0-5"
         style="stroke-width:0.102821;stroke:none" />
      <path
         d="M 3.0427084,13.229169 H 1.7214417 l -0.00165,1.32125 h 1.3212069 z"
         id="path6213-5-2-3-5-2-5-9-8-0-5-8"
         style="stroke-width:0.0856842;stroke:none" />
      <path
         d="M 2.9104168,10.318749 H 1.8534034 l -0.00132,1.057 h 1.0569655 z"
         id="path6213-5-2-3-5-2-5-9-8-0-5-8-9"
         style="stroke-width:0.0685474;stroke:none" />
      <path
         d="m 2.778125,7.540629 h -0.79276 l -9.9e-4,0.79275 h 0.7927241 z"
         id="path6213-5-2-3-5-2-5-9-8-0-5-8-9-7"
         style="stroke-width:0.0514105;stroke:none" />
      <path
         d="M 2.6458334,4.894792 H 2.1173267 l -6.6e-4,0.5285 h 0.5284827 z"
         id="path6213-5-2-3-5-2-5-9-8-0-5-8-9-7-7"
         style="stroke-width:0.0342737;stroke:none" />
      <path
         d="M 2.5135417,2.38125 H 2.2492884 l -3.3e-4,0.26425 h 0.2642413 z"
         id="path6213-5-2-3-5-2-5-9-8-0-5-8-9-7-7-9"
         style="stroke-width:0.0171368;stroke:none" />
      <path
         d="m 8.9958334,53.974999 -4.2280483,0.005 -0.00529,4.22833 4.2278576,-0.005 z"
         id="path6213-3"
         style="stroke-width:0.274192;stroke:none" />
      <path
         d="m 8.8635418,49.609379 -3.9638001,0.005 -0.00495,3.96401 3.9636209,-0.005 z"
         id="path6213-5-5"
         style="stroke-width:0.257054;stroke:none" />
      <path
         d="m 8.7312501,45.376039 -3.6995467,0.005 -0.00462,3.69974 3.6993795,-0.005 z"
         id="path6213-5-2-9"
         style="stroke-width:0.239917;stroke:none" />
      <path
         d="m 8.5989585,41.274999 -3.4352935,0.005 -0.00429,3.43548 3.4351382,-0.005 z"
         id="path6213-5-2-3-0"
         style="stroke-width:0.22278;stroke:none" />
      <path
         d="m 8.4666668,37.306249 -3.1710401,0.005 -0.00396,3.17121 3.1708967,-0.005 z"
         id="path6213-5-2-3-5-1"
         style="stroke-width:0.205643;stroke:none" />
      <path
         d="M 8.3343751,33.469789 H 5.4275884 l -0.00363,2.90675 h 2.9066553 z"
         id="path6213-5-2-3-5-2-3"
         style="stroke-width:0.188506;stroke:none" />
      <path
         d="M 8.2020835,29.765629 H 5.5595501 l -0.0033,2.6425 H 8.198664 Z"
         id="path6213-5-2-3-5-2-5-6"
         style="stroke-width:0.171369;stroke:none" />
      <path
         d="m 8.0697917,26.193749 h -2.37828 l -0.00297,2.37825 h 2.3781725 z"
         id="path6213-5-2-3-5-2-5-9-9"
         style="stroke-width:0.154232;stroke:none" />
      <path
         d="M 7.9375001,22.754169 H 5.8234734 l -0.00264,2.114 h 2.1139311 z"
         id="path6213-5-2-3-5-2-5-9-8-04"
         style="stroke-width:0.137095;stroke:none" />
      <path
         d="M 7.8052085,19.446879 H 5.9554351 l -0.00231,1.84975 h 1.8496897 z"
         id="path6213-5-2-3-5-2-5-9-8-0-0"
         style="stroke-width:0.119958;stroke:none" />
      <path
         d="m 7.6729167,16.271879 h -1.58552 l -0.00198,1.5855 H 7.670865 Z"
         id="path6213-5-2-3-5-2-5-9-8-0-5-2"
         style="stroke-width:0.102821;stroke:none" />
      <path
         d="M 7.5406251,13.229169 H 6.2193584 l -0.00165,1.32125 h 1.3212069 z"
         id="path6213-5-2-3-5-2-5-9-8-0-5-8-4"
         style="stroke-width:0.0856842;stroke:none" />
      <path
         d="M 7.4083335,10.318749 H 6.3513201 l -0.00132,1.057 h 1.0569655 z"
         id="path6213-5-2-3-5-2-5-9-8-0-5-8-9-4"
         style="stroke-width:0.0685474;stroke:none" />
      <path
         d="m 7.2760417,7.540629 h -0.79276 l -9.9e-4,0.79275 h 0.7927241 z"
         id="path6213-5-2-3-5-2-5-9-8-0-5-8-9-7-1"
         style="stroke-width:0.0514105;stroke:none" />
      <path
         d="M 7.1437501,4.894792 H 6.6152434 l -6.6e-4,0.5285 h 0.5284827 z"
         id="path6213-5-2-3-5-2-5-9-8-0-5-8-9-7-7-90"
         style="stroke-width:0.0342737;stroke:none" />
      <path
         d="M 7.0114584,2.38125 H 6.7472051 l -3.3e-4,0.26425 h 0.2642413 z"
         id="path6213-5-2-3-5-2-5-9-8-0-5-8-9-7-7-9-2"
         style="stroke-width:0.0171368;stroke:none" />
      <path
         d="m 4.4979167,146.84375 -4.22804834,0.005 -0.005285,4.22833 4.22785764,-0.005 z"
         id="path6213-3-6"
         style="stroke-width:0.274192;stroke:none"
         transform="translate(8.9958334,-92.868751)" />
      <path
         d="m 4.3656251,142.47813 -3.96380009,0.005 -0.00495,3.96401 3.96362089,-0.005 z"
         id="path6213-5-5-1"
         style="stroke-width:0.257054;stroke:none"
         transform="translate(8.9958334,-92.868751)" />
      <path
         d="m 4.2333334,138.24479 -3.69954672,0.005 -0.00462,3.69974 3.69937952,-0.005 z"
         id="path6213-5-2-9-1"
         style="stroke-width:0.239917;stroke:none"
         transform="translate(8.9958334,-92.868751)" />
      <path
         d="m 4.1010418,134.14375 -3.43529346,0.005 -0.00429,3.43548 3.43513816,-0.005 z"
         id="path6213-5-2-3-0-5"
         style="stroke-width:0.22278;stroke:none"
         transform="translate(8.9958334,-92.868751)" />
      <path
         d="m 3.9687501,130.175 -3.17104009,0.005 -0.00396,3.17121 3.17089669,-0.005 z"
         id="path6213-5-2-3-5-1-6"
         style="stroke-width:0.205643;stroke:none"
         transform="translate(8.9958334,-92.868751)" />
      <path
         d="M 3.8364584,126.33854 H 0.92967168 l -0.00363,2.90675 H 3.832697 Z"
         id="path6213-5-2-3-5-2-3-9"
         style="stroke-width:0.188506;stroke:none"
         transform="translate(8.9958334,-92.868751)" />
      <path
         d="M 3.7041668,122.63438 H 1.0616334 l -0.0033,2.6425 h 2.6424139 z"
         id="path6213-5-2-3-5-2-5-6-8"
         style="stroke-width:0.171369;stroke:none"
         transform="translate(8.9958334,-92.868751)" />
      <path
         d="m 3.571875,119.0625 h -2.37828 l -0.00297,2.37825 h 2.3781725 z"
         id="path6213-5-2-3-5-2-5-9-9-0"
         style="stroke-width:0.154232;stroke:none"
         transform="translate(8.9958334,-92.868751)" />
      <path
         d="M 3.4395834,115.62292 H 1.3255567 l -0.00264,2.114 h 2.1139311 z"
         id="path6213-5-2-3-5-2-5-9-8-04-2"
         style="stroke-width:0.137095;stroke:none"
         transform="translate(8.9958334,-92.868751)" />
      <path
         d="M 3.3072918,112.31563 H 1.4575184 l -0.00231,1.84975 h 1.8496897 z"
         id="path6213-5-2-3-5-2-5-9-8-0-0-2"
         style="stroke-width:0.119958;stroke:none"
         transform="translate(8.9958334,-92.868751)" />
      <path
         d="M 3.175,109.14063 H 1.58948 l -0.00198,1.5855 h 1.5854483 z"
         id="path6213-5-2-3-5-2-5-9-8-0-5-2-6"
         style="stroke-width:0.102821;stroke:none"
         transform="translate(8.9958334,-92.868751)" />
      <path
         d="M 3.0427084,106.09792 H 1.7214417 l -0.00165,1.32125 h 1.3212069 z"
         id="path6213-5-2-3-5-2-5-9-8-0-5-8-4-7"
         style="stroke-width:0.0856842;stroke:none"
         transform="translate(8.9958334,-92.868751)" />
      <path
         d="M 2.9104168,103.1875 H 1.8534034 l -0.00132,1.057 h 1.0569655 z"
         id="path6213-5-2-3-5-2-5-9-8-0-5-8-9-4-6"
         style="stroke-width:0.0685474;stroke:none"
         transform="translate(8.9958334,-92.868751)" />
      <path
         d="m 2.778125,100.40938 h -0.79276 l -9.9e-4,0.79275 h 0.7927241 z"
         id="path6213-5-2-3-5-2-5-9-8-0-5-8-9-7-1-1"
         style="stroke-width:0.0514105;stroke:none"
         transform="translate(8.9958334,-92.868751)" />
      <path
         d="M 2.6458334,97.763543 H 2.1173267 l -6.6e-4,0.5285 h 0.5284827 z"
         id="path6213-5-2-3-5-2-5-9-8-0-5-8-9-7-7-90-2"
         style="stroke-width:0.0342737;stroke:none"
         transform="translate(8.9958334,-92.868751)" />
      <path
         d="M 2.5135417,95.250001 H 2.2492884 l -3.3e-4,0.26425 h 0.2642413 z"
         id="path6213-5-2-3-5-2-5-9-8-0-5-8-9-7-7-9-2-1"
         style="stroke-width:0.0171368;stroke:none"
         transform="translate(8.9958334,-92.868751)" />
      <path
         d="m 17.991667,53.974999 -4.228049,0.005 -0.0053,4.22833 4.227858,-0.005 z"
         id="path6213-3-6-3"
         style="stroke-width:0.274192;stroke:none" />
      <path
         d="m 17.859375,49.609379 -3.9638,0.005 -0.0049,3.96401 3.963621,-0.005 z"
         id="path6213-5-5-1-7"
         style="stroke-width:0.257054;stroke:none" />
      <path
         d="m 17.727083,45.376039 -3.699546,0.005 -0.0046,3.69974 3.699379,-0.005 z"
         id="path6213-5-2-9-1-3"
         style="stroke-width:0.239917;stroke:none" />
      <path
         d="m 17.594792,41.274999 -3.435294,0.005 -0.0043,3.43548 3.435139,-0.005 z"
         id="path6213-5-2-3-0-5-5"
         style="stroke-width:0.22278;stroke:none" />
      <path
         d="m 17.4625,37.306249 -3.17104,0.005 -0.004,3.17121 3.170897,-0.005 z"
         id="path6213-5-2-3-5-1-6-9"
         style="stroke-width:0.205643;stroke:none" />
      <path
         d="m 17.330208,33.469789 h -2.906786 l -0.0036,2.90675 h 2.906655 z"
         id="path6213-5-2-3-5-2-3-9-1"
         style="stroke-width:0.188506;stroke:none" />
      <path
         d="m 17.197917,29.765629 h -2.642534 l -0.0033,2.6425 h 2.642414 z"
         id="path6213-5-2-3-5-2-5-6-8-8"
         style="stroke-width:0.171369;stroke:none" />
      <path
         d="m 17.065625,26.193749 h -2.37828 l -0.003,2.37825 h 2.378172 z"
         id="path6213-5-2-3-5-2-5-9-9-0-4"
         style="stroke-width:0.154232;stroke:none" />
      <path
         d="m 16.933333,22.754169 h -2.114026 l -0.0026,2.114 h 2.113931 z"
         id="path6213-5-2-3-5-2-5-9-8-04-2-0"
         style="stroke-width:0.137095;stroke:none" />
      <path
         d="m 16.801042,19.446879 h -1.849774 l -0.0023,1.84975 h 1.84969 z"
         id="path6213-5-2-3-5-2-5-9-8-0-0-2-8"
         style="stroke-width:0.119958;stroke:none" />
      <path
         d="m 16.66875,16.271879 h -1.58552 l -0.002,1.5855 h 1.585448 z"
         id="path6213-5-2-3-5-2-5-9-8-0-5-2-6-9"
         style="stroke-width:0.102821;stroke:none" />
      <path
         d="m 16.536458,13.229169 h -1.321266 l -0.0016,1.32125 h 1.321207 z"
         id="path6213-5-2-3-5-2-5-9-8-0-5-8-4-7-5"
         style="stroke-width:0.0856842;stroke:none" />
      <path
         d="m 16.404167,10.318749 h -1.057014 l -0.0013,1.057 h 1.056966 z"
         id="path6213-5-2-3-5-2-5-9-8-0-5-8-9-4-6-8"
         style="stroke-width:0.0685474;stroke:none" />
      <path
         d="m 16.271875,7.540629 h -0.79276 l -9.9e-4,0.79275 h 0.792724 z"
         id="path6213-5-2-3-5-2-5-9-8-0-5-8-9-7-1-1-2"
         style="stroke-width:0.0514105;stroke:none" />
      <path
         d="m 16.139583,4.894792 h -0.528506 l -6.6e-4,0.5285 h 0.528482 z"
         id="path6213-5-2-3-5-2-5-9-8-0-5-8-9-7-7-90-2-3"
         style="stroke-width:0.0342737;stroke:none" />
      <path
         d="m 16.007292,2.38125 h -0.264254 l -3.3e-4,0.26425 h 0.264242 z"
         id="path6213-5-2-3-5-2-5-9-8-0-5-8-9-7-7-9-2-1-2"
         style="stroke-width:0.0171368;stroke:none" />
      <path
         d="m 22.489584,53.974999 -4.228049,0.005 -0.0053,4.22833 4.227858,-0.005 z"
         id="path6213-3-6-3-8"
         style="stroke-width:0.274192;stroke:none" />
      <path
         d="m 22.357292,49.609379 -3.9638,0.005 -0.0049,3.96401 3.963621,-0.005 z"
         id="path6213-5-5-1-7-0"
         style="stroke-width:0.257054;stroke:none" />
      <path
         d="m 22.225,45.376039 -3.699546,0.005 -0.0046,3.69974 3.699379,-0.005 z"
         id="path6213-5-2-9-1-3-0"
         style="stroke-width:0.239917;stroke:none" />
      <path
         d="m 22.092709,41.274999 -3.435294,0.005 -0.0043,3.43548 3.435138,-0.005 z"
         id="path6213-5-2-3-0-5-5-8"
         style="stroke-width:0.22278;stroke:none" />
      <path
         d="m 21.960417,37.306249 -3.17104,0.005 -0.004,3.17121 3.170897,-0.005 z"
         id="path6213-5-2-3-5-1-6-9-2"
         style="stroke-width:0.205643;stroke:none" />
      <path
         d="m 21.828125,33.469789 h -2.906786 l -0.0036,2.90675 h 2.906655 z"
         id="path6213-5-2-3-5-2-3-9-1-5"
         style="stroke-width:0.188506;stroke:none" />
      <path
         d="M 21.695834,29.765629 H 19.0533 l -0.0033,2.6425 h 2.642414 z"
         id="path6213-5-2-3-5-2-5-6-8-8-8"
         style="stroke-width:0.171369;stroke:none" />
      <path
         d="m 21.563542,26.193749 h -2.37828 l -0.003,2.37825 h 2.378172 z"
         id="path6213-5-2-3-5-2-5-9-9-0-4-0"
         style="stroke-width:0.154232;stroke:none" />
      <path
         d="m 21.43125,22.754169 h -2.114026 l -0.0026,2.114 h 2.113931 z"
         id="path6213-5-2-3-5-2-5-9-8-04-2-0-3"
         style="stroke-width:0.137095;stroke:none" />
      <path
         d="m 21.298959,19.446879 h -1.849774 l -0.0023,1.84975 h 1.84969 z"
         id="path6213-5-2-3-5-2-5-9-8-0-0-2-8-2"
         style="stroke-width:0.119958;stroke:none" />
      <path
         d="m 21.166667,16.271879 h -1.58552 l -0.002,1.5855 h 1.585448 z"
         id="path6213-5-2-3-5-2-5-9-8-0-5-2-6-9-3"
         style="stroke-width:0.102821;stroke:none" />
      <path
         d="m 21.034375,13.229169 h -1.321266 l -0.0016,1.32125 h 1.321207 z"
         id="path6213-5-2-3-5-2-5-9-8-0-5-8-4-7-5-3"
         style="stroke-width:0.0856842;stroke:none" />
      <path
         d="M 20.902084,10.318749 H 19.84507 l -0.0013,1.057 h 1.056966 z"
         id="path6213-5-2-3-5-2-5-9-8-0-5-8-9-4-6-8-2"
         style="stroke-width:0.0685474;stroke:none" />
      <path
         d="m 20.769792,7.540629 h -0.79276 l -9.9e-4,0.79275 h 0.792724 z"
         id="path6213-5-2-3-5-2-5-9-8-0-5-8-9-7-1-1-2-1"
         style="stroke-width:0.0514105;stroke:none" />
      <path
         d="m 20.6375,4.894792 h -0.528506 l -6.6e-4,0.5285 h 0.528482 z"
         id="path6213-5-2-3-5-2-5-9-8-0-5-8-9-7-7-90-2-3-9"
         style="stroke-width:0.0342737;stroke:none" />
      <path
         d="m 20.505209,2.38125 h -0.264254 l -3.3e-4,0.26425 h 0.264242 z"
         id="path6213-5-2-3-5-2-5-9-8-0-5-8-9-7-7-9-2-1-2-1"
         style="stroke-width:0.0171368;stroke:none" />
      <path
         d="m 26.987501,53.974999 -4.228049,0.005 -0.0053,4.22833 4.227858,-0.005 z"
         id="path6213-3-6-3-8-5"
         style="stroke-width:0.274192;stroke:none" />
      <path
         d="m 26.855209,49.609379 -3.9638,0.005 -0.005,3.96401 3.963621,-0.005 z"
         id="path6213-5-5-1-7-0-7"
         style="stroke-width:0.257054;stroke:none" />
      <path
         d="m 26.722917,45.376039 -3.699546,0.005 -0.0046,3.69974 3.699379,-0.005 z"
         id="path6213-5-2-9-1-3-0-6"
         style="stroke-width:0.239917;stroke:none" />
      <path
         d="m 26.590626,41.274999 -3.435294,0.005 -0.0043,3.43548 3.435138,-0.005 z"
         id="path6213-5-2-3-0-5-5-8-7"
         style="stroke-width:0.22278;stroke:none" />
      <path
         d="m 26.458334,37.306249 -3.17104,0.005 -0.004,3.17121 3.170897,-0.005 z"
         id="path6213-5-2-3-5-1-6-9-2-7"
         style="stroke-width:0.205643;stroke:none" />
      <path
         d="m 26.326042,33.469789 h -2.906786 l -0.0036,2.90675 h 2.906655 z"
         id="path6213-5-2-3-5-2-3-9-1-5-0"
         style="stroke-width:0.188506;stroke:none" />
      <path
         d="m 26.193751,29.765629 h -2.642534 l -0.0033,2.6425 h 2.642414 z"
         id="path6213-5-2-3-5-2-5-6-8-8-8-2"
         style="stroke-width:0.171369;stroke:none" />
      <path
         d="m 26.061459,26.193749 h -2.37828 l -0.003,2.37825 h 2.378172 z"
         id="path6213-5-2-3-5-2-5-9-9-0-4-0-1"
         style="stroke-width:0.154232;stroke:none" />
      <path
         d="m 25.929167,22.754169 h -2.114026 l -0.0026,2.114 h 2.113931 z"
         id="path6213-5-2-3-5-2-5-9-8-04-2-0-3-1"
         style="stroke-width:0.137095;stroke:none" />
      <path
         d="m 25.796876,19.446879 h -1.849774 l -0.0023,1.84975 h 1.84969 z"
         id="path6213-5-2-3-5-2-5-9-8-0-0-2-8-2-4"
         style="stroke-width:0.119958;stroke:none" />
      <path
         d="m 25.664584,16.271879 h -1.58552 l -0.002,1.5855 h 1.585448 z"
         id="path6213-5-2-3-5-2-5-9-8-0-5-2-6-9-3-3"
         style="stroke-width:0.102821;stroke:none" />
      <path
         d="m 25.532292,13.229169 h -1.321266 l -0.0017,1.32125 h 1.321207 z"
         id="path6213-5-2-3-5-2-5-9-8-0-5-8-4-7-5-3-7"
         style="stroke-width:0.0856842;stroke:none" />
      <path
         d="m 25.400001,10.318749 h -1.057014 l -0.0013,1.057 h 1.056966 z"
         id="path6213-5-2-3-5-2-5-9-8-0-5-8-9-4-6-8-2-4"
         style="stroke-width:0.0685474;stroke:none" />
      <path
         d="m 25.267709,7.540629 h -0.79276 l -9.9e-4,0.79275 h 0.792724 z"
         id="path6213-5-2-3-5-2-5-9-8-0-5-8-9-7-1-1-2-1-4"
         style="stroke-width:0.0514105;stroke:none" />
      <path
         d="m 25.135417,4.894792 h -0.528506 l -6.6e-4,0.5285 h 0.528482 z"
         id="path6213-5-2-3-5-2-5-9-8-0-5-8-9-7-7-90-2-3-9-3"
         style="stroke-width:0.0342737;stroke:none" />
      <path
         d="m 25.003126,2.38125 h -0.264254 l -3.3e-4,0.26425 h 0.264242 z"
         id="path6213-5-2-3-5-2-5-9-8-0-5-8-9-7-7-9-2-1-2-1-0"
         style="stroke-width:0.0171368;stroke:none" />
    </g>
  </g>
</svg>
